<?xml version="1.0" encoding="UTF-8"?>
<svg id="katman_1" data-name="katman 1" xmlns="http://www.w3.org/2000/svg" xmlns:xlink="http://www.w3.org/1999/xlink" viewBox="0 0 92 92">
  <defs>
    <style>
      .cls-1 {
        fill-rule: evenodd;
      }

      .cls-1, .cls-2 {
        stroke-width: 0px;
      }

      .cls-2 {
        fill: none;
      }

      .cls-3 {
        clip-path: url(#clippath);
      }
    </style>
    <clipPath id="clippath">
      <rect class="cls-2" x="0" width="92" height="92"/>
    </clipPath>
  </defs>
  <g class="cls-3">
    <path class="cls-1" d="M68.9,76.7c3.31-2.44,2.96-2.79-3.31,1.22-9.07,6.27-29.28,5.06-40.61-7.49-11.33-12.55-8.37-26.32-5.05-34.34,3.31-8.02,23.53-13.25,22.31-12.55-.14.08-.36.21-.64.37-2.27,1.29-8.52,4.84-7.9,4.69.7-.17,8.72-2.44,13.08-4.36,3.25-1.43,5.72-1.31,8.87-1.16,1.07.05,2.22.11,3.5.11,2.84,0,3.59,1.16,4.23,2.14.5.77.92,1.43,2.22,1.35,2.96-.18,5.4,1.39,6.97,2.96,1.57,1.57,2.62,2.09,2.96,4.01.35,1.92,3.66,5.23,4.88,5.23.09,0,.18,0,.26,0,1.04-.01,1.61-.02,3.23,1.92.9,1.08,1.29,3.42,1.57,5.13.27,1.61.44,2.67.86,1.66.51-1.22.25-6.04.04-9.71-.14-2.6-.26-4.62-.04-4.4.12.12.28.7.49,1.45.65,2.38,1.8,6.55,4.05,4.3,2.96-2.96-6.1-12.9-8.19-15.16-1.61-1.75,2.67.13,4.48.93.54.24.86.38.74.3-.52-.35-5.4-6.1-2.09-3.49,3.31,2.61-1.04-4.36-5.05-6.45-4.01-2.09-1.57-3.48-1.57-3.48,0,0,7.32,3.31,2.44-1.74C76.74,5.07,55.31.19,51.47.02c-3.84-.18-32.25.7-45.14,24.4-12.9,23.7-2.09,42.88-2.09,42.88,0,0-.17-2.96-.35-5.58,7.49,21.61,28.93,28.93,28.93,28.93-1.92-1.05-2.09-1.57-2.79-3.14,16.39,6.1,19.18,3.48,17.26,3.14-1.92-.35,1.57-.35,1.57-.35-11.16-.17-24.4-5.75-31.9-18.3,26.82,19.51,43.4,12.03,45.66,10.98,1.52-.7.53-.78.19-.8-.17-.01-.18-.01.34-.07,1.57-.17,3.84-2.79,3.84-2.79l1.4-1.39c1.53-1.1.9-.84.25-.57-.69.29-1.42.6.28-.65h0ZM68.9,76.7"/>
  </g>
</svg>